PathFileType  4	(X/Y/Z) C:\Users\antoi\Documents\MyRepositories\mobilecap\ResultsAnalysis
DataRate	CameraRate	NumFrames	NumMarkers	Units	OrigDataRate	OrigDataStartFrame	OrigNumFrames
100.0	100.0	4	55	mm	100.0	166	265
Frame#	Time	r_knee			r_shank_antsup			r_ankle			r_calc			r_5meta			r_toe			L_knee			L_shank_antsup			L_ankle			L_calc			L_5meta			L_toe			r_mknee			r_mankle			L_mknee			L_mankle			r_sh2			r_sh3			r_sh4			L_sh2			L_sh3			r_thigh1			r_thigh2			r_thigh3			r_thigh4			r_thigh5			L_thigh1			L_thigh2			L_thigh3			L_thigh4			r.ASIS			r.PSIS			L.ASIS			L.PSIS			C7			R_Shoulder			L_Shoulder			R_Sternum			L_Sternum			R_humerus			R_elbow_med			R_elbow_lat			R_forearm			R_wrist_radius			R_wrist_ulna			L_humerus			L_elbow_med			L_elbow_lat			L_forearm			L_wrist_radius			L_wrist_ulna			R_HJC			L_HJC			R_HJC_reg			L_HJC_reg			
		X1	Y1	Z1	X2	Y2	Z2	X3	Y3	Z3	X4	Y4	Z4	X5	Y5	Z5	X6	Y6	Z6	X7	Y7	Z7	X8	Y8	Z8	X9	Y9	Z9	X10	Y10	Z10	X11	Y11	Z11	X12	Y12	Z12	X13	Y13	Z13	X14	Y14	Z14	X15	Y15	Z15	X16	Y16	Z16	X17	Y17	Z17	X18	Y18	Z18	X19	Y19	Z19	X20	Y20	Z20	X21	Y21	Z21	X22	Y22	Z22	X23	Y23	Z23	X24	Y24	Z24	X25	Y25	Z25	X26	Y26	Z26	X27	Y27	Z27	X28	Y28	Z28	X29	Y29	Z29	X30	Y30	Z30	X31	Y31	Z31	X32	Y32	Z32	X33	Y33	Z33	X34	Y34	Z34	X35	Y35	Z35	X36	Y36	Z36	X37	Y37	Z37	X38	Y38	Z38	X39	Y39	Z39	X40	Y40	Z40	X41	Y41	Z41	X42	Y42	Z42	X43	Y43	Z43	X44	Y44	Z44	X45	Y45	Z45	X46	Y46	Z46	X47	Y47	Z47	X48	Y48	Z48	X49	Y49	Z49	X50	Y50	Z50	X51	Y51	Z51	X52	Y52	Z52	X53	Y53	Z53	X54	Y54	Z54	X55	Y55	Z55	

166	1.65000000	-206.28043	501.63936	-391.86063	-173.56813	433.69788	-402.72236	-250.72861	98.71304	-366.06183	-320.89317	63.96235	-394.17920	-144.61527	45.91240	-335.69998	-102.25207	70.05559	-396.09592	-215.74910	497.54853	-731.80044	-193.02916	410.27372	-741.40823	-254.88320	101.13521	-740.60640	-320.55754	62.51649	-698.86555	-151.10241	42.80255	-788.23618	-110.23794	62.95481	-732.43401	-209.33900	486.63065	-513.02897	-239.78451	104.88973	-444.33701	-212.66353	487.37246	-608.77347	-224.94060	100.41586	-664.59574	-197.98841	326.38235	-365.80862	-248.45223	452.44824	-371.38158	-269.36450	342.92344	-355.16560	-280.00296	422.05781	-745.88327	-283.25305	300.54055	-761.93586	-131.84298	820.94893	-387.49040	-136.58121	709.12241	-389.52046	-193.80827	686.93085	-360.29198	-243.82743	824.38306	-367.76163	-246.86062	707.33684	-369.41778	-164.14127	765.77650	-765.83484	-166.85347	628.15943	-747.79240	-276.78111	767.04631	-736.20586	-272.51507	626.71824	-726.16992	-113.68570	978.99541	-438.73557	-309.50120	1013.65140	-523.95154	-106.25843	958.87787	-691.77574	-313.22105	1009.29091	-620.62307	-327.85484	1419.15325	-584.29547	-229.94658	1389.70505	-403.59028	-256.45269	1389.29372	-763.64742	-188.84412	1399.86864	-562.94274	-184.87269	1402.89413	-604.61939	-209.33165	1247.75254	-350.31749	-266.57927	1041.82463	-404.55860	-243.18623	1052.57651	-338.23088	-161.91993	935.53106	-334.68407	-117.98549	806.19412	-342.16195	-140.47435	796.95647	-316.53788	-227.85295	1270.17211	-815.56423	-266.45778	1039.75939	-741.27340	-238.70907	1053.88796	-813.02318	-166.40665	964.14276	-798.64594	-120.08691	810.84037	-790.31905	-142.38661	804.39403	-813.79572	-191.79679	897.97901	-460.21427	-189.05298	886.37569	-666.34059	-181.66048	899.47429	-468.10146	-188.09839	891.92743	-635.41277	
167	1.66000000	-206.29717	501.67461	-391.85820	-173.57919	433.70291	-402.73013	-250.78124	98.72547	-366.10854	-320.86752	63.94698	-394.17240	-144.60299	45.94057	-335.66776	-102.26694	70.03318	-396.11379	-215.76227	497.53602	-731.79767	-193.03800	410.25620	-741.41087	-254.88658	101.13113	-740.60368	-320.54027	62.52468	-698.88921	-151.09608	42.80515	-788.24550	-110.24505	62.93493	-732.42751	-209.35399	486.64233	-513.03019	-239.78600	104.86558	-444.34675	-212.66823	487.36950	-608.77774	-225.01709	100.37699	-664.62521	-198.10798	326.38746	-365.81848	-248.43722	452.44609	-371.39049	-269.35087	343.06845	-355.17054	-280.00468	422.01419	-745.81585	-283.38366	300.28624	-761.92025	-131.85973	820.93061	-387.47650	-136.65900	709.17488	-389.45120	-193.83470	686.89877	-360.27850	-243.88368	824.32795	-367.82698	-246.85279	707.35774	-369.39869	-164.08938	765.76086	-765.79745	-166.86412	628.14042	-747.80300	-276.80681	766.99788	-736.17585	-272.49863	626.73782	-726.21781	-113.68964	978.99127	-438.74194	-309.52111	1013.68673	-523.93506	-106.25235	958.86310	-691.74788	-313.27906	1009.28973	-620.66586	-327.83664	1419.14583	-584.27027	-229.91891	1389.75974	-403.57120	-256.43705	1389.29672	-763.64938	-188.82665	1399.91839	-562.91808	-184.85661	1402.89785	-604.61053	-209.32800	1247.78760	-350.28294	-266.60314	1041.83135	-404.56168	-243.17520	1052.57421	-338.22941	-161.88999	935.55633	-334.65875	-117.98913	806.16873	-342.18363	-140.45547	796.98645	-316.53183	-227.79710	1270.19567	-815.64700	-266.46830	1039.79748	-741.33173	-238.69180	1053.88233	-813.02130	-166.41560	964.16083	-798.66284	-120.08666	810.82834	-790.32513	-142.38905	804.39103	-813.82457	-191.82890	897.99183	-460.20553	-189.07662	886.36799	-666.33058	-181.65992	899.53794	-468.05134	-188.15887	891.93383	-635.33590	
168	1.67000000	-206.32597	501.69007	-391.85799	-173.59571	433.68974	-402.75469	-250.76515	98.73925	-366.08823	-320.86199	63.95245	-394.17000	-144.62827	45.91144	-335.67710	-102.28775	70.00272	-396.11134	-215.77671	497.51550	-731.79325	-193.06738	410.21312	-741.38854	-254.88357	101.13573	-740.60124	-320.55547	62.52828	-698.92839	-151.09992	42.79417	-788.24882	-110.24037	62.91481	-732.44821	-209.33889	486.63254	-513.01094	-239.79504	104.84319	-444.34868	-212.67228	487.36951	-608.78161	-225.04509	100.36726	-664.62383	-198.14020	326.43195	-365.79711	-248.43183	452.44788	-371.39743	-269.48966	343.42378	-355.32954	-280.00319	421.99206	-745.77038	-283.49390	300.09423	-761.90203	-131.89857	820.91568	-387.45650	-136.71938	709.21613	-389.41368	-193.82916	686.87925	-360.29324	-243.93040	824.31584	-367.88493	-246.84863	707.37735	-369.38599	-164.09324	765.74708	-765.77408	-166.87752	628.12494	-747.80649	-276.81174	767.00875	-736.14158	-272.48341	626.72808	-726.22046	-113.71009	978.94491	-438.73950	-309.52621	1013.74672	-523.98493	-106.24271	958.85245	-691.75290	-313.27279	1009.31434	-620.69106	-327.81560	1419.13272	-584.22958	-229.87976	1389.77277	-403.55378	-256.41997	1389.30056	-763.64214	-188.79528	1399.93338	-562.88463	-184.84830	1402.91058	-604.58998	-209.28421	1247.84340	-350.19840	-266.58756	1041.86533	-404.56231	-243.19958	1052.55358	-338.22995	-161.85692	935.58680	-334.64092	-117.95090	806.18502	-342.19132	-140.44190	796.97930	-316.47851	-227.76363	1270.23347	-815.69916	-266.47600	1039.80685	-741.33233	-238.67969	1053.88340	-813.02745	-166.39642	964.17361	-798.67082	-120.09172	810.82411	-790.32433	-142.38596	804.39196	-813.84026	-191.88080	897.98391	-460.22895	-189.09743	886.37523	-666.35444	-181.73015	899.59785	-468.03269	-188.21113	891.93053	-635.31869	
169	1.68000000	-206.36811	501.66172	-391.87349	-173.61681	433.66437	-402.77112	-250.72670	98.71118	-366.04052	-320.88343	63.94359	-394.14884	-144.66277	45.86596	-335.71957	-102.28623	69.98767	-396.09076	-215.78513	497.50148	-731.79537	-193.07482	410.20124	-741.38198	-254.87405	101.14531	-740.60307	-320.57522	62.50824	-698.94025	-151.10286	42.78163	-788.25388	-110.23454	62.91006	-732.47332	-209.33851	486.63740	-513.01196	-239.80258	104.82970	-444.34161	-212.67539	487.36794	-608.78321	-225.01195	100.44335	-664.59924	-198.10582	326.42746	-365.77208	-248.44382	452.45561	-371.39700	-269.61178	343.53496	-355.42974	-280.00092	421.99435	-745.78035	-283.50064	300.05573	-761.91551	-131.94309	820.90504	-387.44618	-136.81137	709.28035	-389.41944	-193.83527	686.87346	-360.31152	-243.92451	824.34748	-367.85782	-246.88242	707.34480	-369.39853	-164.11748	765.72561	-765.78280	-166.89481	628.10693	-747.80049	-276.79126	767.06031	-736.14413	-272.50526	626.71023	-726.19799	-113.71054	978.91693	-438.73245	-309.49787	1013.73878	-524.02207	-106.24200	958.84570	-691.75952	-313.21731	1009.36645	-620.68393	-327.82984	1419.12723	-584.21331	-229.85242	1389.74383	-403.52651	-256.40801	1389.30359	-763.63014	-188.77811	1399.90385	-562.84669	-184.85390	1402.91425	-604.58138	-209.24330	1247.85574	-350.14370	-266.52491	1041.87531	-404.55901	-243.18270	1052.58181	-338.21140	-161.83727	935.59201	-334.64359	-117.88859	806.22603	-342.18652	-140.41735	797.00213	-316.39446	-227.75778	1270.25148	-815.66118	-266.47781	1039.80533	-741.31504	-238.66948	1053.89400	-813.03334	-166.36407	964.21158	-798.70249	-120.09956	810.83425	-790.33553	-142.38493	804.40163	-813.84948	-191.89018	897.96558	-460.24865	-189.09200	886.38733	-666.37565	-181.73781	899.50658	-468.08874	-188.17533	891.93903	-635.38886	
